<svg width="33" height="33" viewBox="0 0 33 33" fill="none" xmlns="http://www.w3.org/2000/svg">
<g clip-path="url(#clip0)">
<path d="M29.3333 4.58337H3.66667C2.69421 4.58337 1.76158 4.96968 1.07394 5.65732C0.386308 6.34495 0 7.27758 0 8.25004L0 16.5H33V8.25004C33 7.27758 32.6137 6.34495 31.9261 5.65732C31.2384 4.96968 30.3058 4.58337 29.3333 4.58337Z" fill="#DC1F26"/>
<path d="M33 24.75C33 25.7225 32.6137 26.6551 31.9261 27.3427C31.2384 28.0304 30.3058 28.4167 29.3333 28.4167H3.66667C2.69421 28.4167 1.76158 28.0304 1.07394 27.3427C0.386308 26.6551 0 25.7225 0 24.75V16.5H33V24.75Z" fill="#EEEEEE"/>
</g>
<defs>
<clipPath id="clip0">
<rect width="33" height="33" fill="white"/>
</clipPath>
</defs>
</svg>
